<?xml version="1.0" standalone="no"?>
<!DOCTYPE svg PUBLIC "-//W3C//DTD SVG 20010904//EN"
 "http://www.w3.org/TR/2001/REC-SVG-20010904/DTD/svg10.dtd">
<svg version="1.0" xmlns="http://www.w3.org/2000/svg"
 width="58.000000pt" height="58.000000pt" viewBox="0 0 58.000000 58.000000"
 preserveAspectRatio="xMidYMid meet">

<g transform="translate(0.000000,58.000000) scale(0.100000,-0.100000)"
fill="#000000" stroke="none">
<path d="M173 504 c-54 -20 -93 -56 -93 -89 l0 -25 210 0 210 0 0 25 c0 34
-39 69 -97 89 -58 20 -174 19 -230 0z"/>
<path d="M67 344 c-4 -4 -7 -13 -7 -21 0 -10 45 -13 231 -13 214 0 230 1 227
18 -3 15 -23 17 -224 20 -121 1 -223 -1 -227 -4z"/>
<path d="M64 255 c-4 -8 -4 -22 0 -30 5 -13 37 -15 228 -13 l223 3 0 25 c0 22
-5 25 -43 28 -30 2 -53 -3 -73 -16 -30 -19 -32 -19 -97 0 -85 23 -230 25 -238
3z"/>
<path d="M82 138 l3 -33 205 0 205 0 3 33 3 32 -211 0 -211 0 3 -32z"/>
</g>
</svg>
